<svg width="18" height="15" viewBox="0 0 18 15" fill="none" xmlns="http://www.w3.org/2000/svg">
<path d="M18 7.50017C18 7.92326 17.6877 8.27278 17.2844 8.32405L17.1818 8.33052H0.818182C0.486545 8.33052 0.188727 8.12791 0.0621818 7.81681C0.0207273 7.71495 0 7.60756 0 7.50017C0 7.32026 0.0575758 7.14188 0.168308 6.9958L0.241091 6.91228L6.84109 0.241774C7.16073 -0.0815105 7.67891 -0.0804052 7.99745 0.243986C8.28945 0.542359 8.31379 1.00912 8.06877 1.33385L7.99527 1.41866L2.79927 6.66981L17.1818 6.66981C17.6335 6.66981 18 7.04181 18 7.50017ZM7.99538 13.5813C8.31611 13.9046 8.31611 14.4305 7.99756 14.756C7.70556 15.0534 7.24581 15.0791 6.92417 14.8323L6.84011 14.7582L3.20084 11.0792C3.03938 10.9165 2.95975 10.7039 2.95975 10.4902C2.95975 10.2787 3.03938 10.0673 3.19865 9.90454C3.49065 9.60616 3.94949 9.58037 4.27097 9.828L4.35502 9.90232L7.99538 13.5813Z" fill="white"/>
</svg>
