<svg width="48" height="48" viewBox="0 0 48 48" fill="none" xmlns="http://www.w3.org/2000/svg">
<path opacity="0.4" d="M42.6619 14.885C41.8238 14.3571 40.7938 14.3104 39.9158 14.7571L36.9518 16.2535C35.8558 16.8058 35.1758 17.9226 35.1758 19.1652V30.8322C35.1758 32.0749 35.8558 33.1896 36.9518 33.7459L39.9138 35.2403C40.3158 35.4474 40.7458 35.5469 41.1758 35.5469C41.6918 35.5469 42.2039 35.4007 42.6619 35.1145C43.4999 34.5886 43.9999 33.6769 43.9999 32.6779V17.3236C43.9999 16.3246 43.4999 15.4129 42.6619 14.885Z" fill="white"/>
<path d="M23.8102 40H12.2261C7.38203 40 4 36.6599 4 31.8782V18.1218C4 13.3381 7.38203 10 12.2261 10H23.8102C28.6542 10 32.0363 13.3381 32.0363 18.1218V31.8782C32.0363 36.6599 28.6542 40 23.8102 40Z" fill="white"/>
</svg>
