<svg width="60" height="60" viewBox="0 0 60 60" fill="none" xmlns="http://www.w3.org/2000/svg">
<g clip-path="url(#clip0_1_10042)">
<path d="M17.6613 59.9981C12.9347 59.9981 8.49081 58.1574 5.14867 54.8151C-1.71634 48.2283 -1.7161 36.3763 5.14867 29.7896L29.7878 5.15033C36.3747 -1.71467 48.2266 -1.71432 54.8134 5.15033C58.7477 9.04187 60.6367 14.7815 59.808 20.2447C59.62 21.5256 58.4283 22.411 57.1487 22.2233C55.8679 22.0353 54.9822 20.8447 55.17 19.564C56.9381 7.18089 41.979 -0.321165 33.1025 8.46506L8.46327 33.1043C3.41671 37.9464 3.41706 46.6586 8.46316 51.5006C13.3052 56.547 22.0175 56.5468 26.8594 51.5006L33.7107 44.6187C35.9923 42.5021 39.1383 45.6372 37.0328 47.9259L30.1779 54.8116C26.8318 58.1574 22.3881 59.9981 17.6613 59.9981ZM36.5602 36.562C37.4756 35.6466 37.4756 34.1626 36.5602 33.2474L27.5366 24.2237C25.2501 22.1123 22.1112 25.2543 24.2218 27.5384L33.2455 36.562C33.7031 37.0196 34.303 37.2485 34.9029 37.2485C35.5028 37.2485 36.1026 37.0197 36.5602 36.562Z" fill="white"/>
<path d="M47.0908 59.9835C45.021 59.9957 43.9493 57.427 45.4511 55.9649L55.0748 46.5431C55.3559 46.2681 55.3173 45.9719 55.2358 45.7716C55.1546 45.5723 54.9761 45.3347 54.5874 45.3347H45.688C40.8841 45.3593 38.4733 39.3996 41.9364 36.0746L52.0229 26.3069C54.3428 24.2323 57.4309 27.4245 55.2838 29.6742L45.1991 39.4402C44.9196 39.7115 44.9576 40.0082 45.0391 40.2089C45.12 40.4089 45.2984 40.647 45.6879 40.647H54.5872C56.7874 40.647 58.7459 41.9641 59.5766 44.0023C60.4078 46.042 59.9274 48.3545 58.3526 49.8938L48.7303 59.3143C48.2928 59.7439 47.704 59.9843 47.0908 59.9835ZM10.6445 46.3894C10.6445 48.0075 11.9562 49.3192 13.5743 49.3192C17.4606 49.1648 17.4595 43.6134 13.5743 43.4597C11.9562 43.4597 10.6445 44.7714 10.6445 46.3894ZM12.754 36.897C12.754 38.5151 14.0657 39.8268 15.6837 39.8268C19.57 39.6724 19.5689 34.121 15.6837 33.9673C14.0657 33.9673 12.754 35.279 12.754 36.897ZM20.3713 44.5144C20.3713 46.1324 21.683 47.4441 23.3011 47.4441C27.1873 47.2898 27.1863 41.7384 23.3011 41.5846C21.683 41.5846 20.3713 42.8963 20.3713 44.5144Z" fill="white" fill-opacity="0.55"/>
</g>
<defs>
<clipPath id="clip0_1_10042">
<rect width="60" height="60" fill="white"/>
</clipPath>
</defs>
</svg>
