<svg width="62" height="62" viewBox="0 0 62 62" fill="none" xmlns="http://www.w3.org/2000/svg">
<path d="M23.1427 23.207C22.0663 22.432 21.2806 21.8616 20.4948 21.3018C17.3302 19.0306 14.1441 16.7702 11.0011 14.4668C10.2476 13.9178 9.53717 13.2397 9.00974 12.4862C8.70835 12.0341 8.61148 11.2268 8.81599 10.7532C8.93439 10.4734 9.90314 10.3227 10.366 10.4841C11.4962 10.8609 12.5941 11.3775 13.6274 11.9695C16.8458 13.8317 20.032 15.7584 23.358 17.739C23.6594 15.7584 23.9177 13.7886 24.2837 11.8404C24.5636 10.3334 24.9511 8.82648 25.3708 7.35183C25.6399 6.39384 26.2104 5.56502 27.3622 5.72648C28.557 5.88794 28.9445 6.83516 28.9229 7.90078C28.8799 11.0761 28.7722 14.2407 28.7077 17.4161C28.6861 18.1695 28.7077 18.923 28.7077 19.6765C28.8261 19.7841 29.8379 18.88 30.3115 18.4171C34.3587 14.456 38.4059 10.5164 42.4962 6.59835C43.0667 6.0494 43.7879 5.58655 44.5198 5.28516C44.9073 5.1237 45.6393 5.2421 45.8976 5.52197C46.1559 5.80183 46.2097 6.53377 46.0267 6.91051C45.6823 7.63169 45.1656 8.28828 44.6167 8.8803C41.0108 12.8414 37.3834 16.781 33.7667 20.7313C33.3684 21.1619 32.9702 21.614 32.3781 22.2706C35.0906 22.0768 37.534 21.8615 39.9774 21.7324C44.8965 21.4848 49.8264 21.2803 54.7455 21.065C55.0469 21.0543 55.3698 21.0543 55.6281 21.1081C57.3181 21.4633 57.1674 23.1532 55.8972 23.3685C54.3472 23.6376 52.7865 23.9713 51.2149 24.1327C45.5854 24.6925 39.9559 25.1876 34.3264 25.715C34.208 25.7258 34.1004 25.7688 33.7452 25.8657C35.2952 27.082 36.7268 28.2015 38.1584 29.3102C40.8601 31.4199 43.5941 33.4973 46.2528 35.6501C46.9632 36.2313 47.5875 36.9956 48.0396 37.7921C48.524 38.6317 48.0181 39.3529 47.0924 39.1268C45.9622 38.8362 44.7997 38.3734 43.8417 37.7168C39.1702 34.5306 34.5632 31.2477 29.9347 27.997C29.4181 27.631 28.9014 27.265 28.1479 26.7161C27.9865 29.1595 27.8573 31.3553 27.6851 33.5511C27.1684 40.0848 26.6518 46.6185 26.1136 53.1522C26.049 53.8734 25.909 54.6053 25.6938 55.2942C25.4031 56.2414 24.7573 56.8657 23.7132 56.7904C22.7337 56.715 22.1632 56.0584 21.991 55.1327C21.8295 54.2501 21.7434 53.3459 21.7542 52.4525C21.8188 46.6185 21.9156 40.7952 22.0018 34.9612C22.0125 34.5306 22.0018 34.1109 22.0018 33.3681C21.5066 33.8418 21.1622 34.1539 20.8285 34.4876C17.1042 38.2119 13.3799 41.947 9.64481 45.6713C9.22502 46.0911 8.75141 46.5109 8.21321 46.7477C7.84724 46.9091 7.20141 46.8984 6.92155 46.6723C6.64168 46.4463 6.5771 45.8112 6.5771 45.4345C6.58786 44.2504 7.22293 43.723 7.78266 43.0449C11.0764 39.0515 14.424 35.0904 17.7931 31.1508C19.0094 29.73 20.3334 28.406 21.8941 26.7484C18.9771 27.082 16.4476 27.405 13.9181 27.6418C11.4854 27.8678 9.0528 28.0077 6.60939 28.18C6.35106 28.2015 6.08196 28.1584 5.84516 28.1261C4.60731 27.9754 5.30696 26.6622 5.66217 26.5761C8.10557 25.9734 10.5705 25.3921 13.0462 24.94C15.9847 24.4341 22.4754 23.4331 23.1427 23.207Z" fill="white"/>
</svg>
